<?xml version="1.0" encoding="UTF-8" standalone="no"?>
<svg
   xmlns:dc="http://purl.org/dc/elements/1.1/"
   xmlns:cc="http://creativecommons.org/ns#"
   xmlns:rdf="http://www.w3.org/1999/02/22-rdf-syntax-ns#"
   xmlns:svg="http://www.w3.org/2000/svg"
   xmlns="http://www.w3.org/2000/svg"
   xmlns:sodipodi="http://sodipodi.sourceforge.net/DTD/sodipodi-0.dtd"
   xmlns:inkscape="http://www.inkscape.org/namespaces/inkscape"
   width="175.07397mm"
   height="113.59774mm"
   preserveAspectRatio="xMidYMid"
   version="1.2"
   viewBox="0 0 17507.397 11359.774"
   xml:space="preserve"
   id="svg933"
   sodipodi:docname="smartphone_colorchange.svg"
   inkscape:version="0.92.2 5c3e80d, 2017-08-06"
   style="fill-rule:evenodd;stroke-width:28.22200012;stroke-linejoin:round"
   inkscape:export-filename="/Users/eurekafoong/Google Drive/My Coursework/Fall 2017/EECS394/Aqua2/Team-Aqua/src/assets/smartphone_colorchange.png"
   inkscape:export-xdpi="96"
   inkscape:export-ydpi="96"><metadata
     id="metadata939"><rdf:RDF><cc:Work
         rdf:about=""><dc:format>image/svg+xml</dc:format><dc:type
           rdf:resource="http://purl.org/dc/dcmitype/StillImage" /><dc:title /></cc:Work></rdf:RDF></metadata><defs
     id="defs937" /><sodipodi:namedview
     pagecolor="#ffffff"
     bordercolor="#666666"
     borderopacity="1"
     objecttolerance="10"
     gridtolerance="10"
     guidetolerance="10"
     inkscape:pageopacity="0"
     inkscape:pageshadow="2"
     inkscape:window-width="1389"
     inkscape:window-height="819"
     id="namedview935"
     showgrid="false"
     inkscape:zoom="1.1313708"
     inkscape:cx="514.35259"
     inkscape:cy="214.51714"
     inkscape:window-x="6"
     inkscape:window-y="0"
     inkscape:window-maximized="0"
     inkscape:current-layer="svg933"
     fit-margin-top="0"
     fit-margin-left="0"
     fit-margin-right="0"
     fit-margin-bottom="0"
     inkscape:snap-text-baseline="true"
     inkscape:snap-global="true" /><g
     id="g4770"
     transform="matrix(0.77623241,-0.19869529,0.19869529,0.77623241,-1928.2153,-4017.2218)"><path
       id="path907-7"
       d="m 1571.0167,7186.9265 c -402.8133,0 -805.14309,402.3298 -805.14309,805.1431 V 19123.838 c 0,402.33 402.32979,805.143 805.14309,805.143 h 4676.1164 c 402.8133,0 805.6267,-402.813 805.6267,-805.143 V 7992.0696 c 0,-402.8133 -402.8134,-805.1431 -805.6267,-805.1431 z"
       inkscape:connector-curvature="0"
       style="fill:#808080;stroke-width:13.64729691" /><path
       id="path909-9"
       d="m 1571.0167,7186.9265 c -402.8133,0 -805.14309,402.3298 -805.14309,805.1431 V 19123.838 c 0,402.33 402.32979,805.143 805.14309,805.143 h 4676.1164 c 402.8133,0 805.6267,-402.813 805.6267,-805.143 V 7992.0696 c 0,-402.8133 -402.8134,-805.1431 -805.6267,-805.1431 z"
       inkscape:connector-curvature="0"
       style="fill:none;stroke:#808080;stroke-width:13.64729691;stroke-linejoin:round" /><path
       style="stroke-width:13.64729691"
       id="path911-0"
       d="m 1474.3028,7090.2126 c -402.8133,0 -805.14308,402.3298 -805.14308,805.1431 V 19027.124 c 0,402.33 402.32978,805.143 805.14308,805.143 h 4676.1164 c 402.8133,0 805.6267,-402.813 805.6267,-805.143 V 7895.3557 c 0,-402.8133 -402.8134,-805.1431 -805.6267,-805.1431 z"
       inkscape:connector-curvature="0" /><path
       id="path913-2"
       d="m 1474.3028,7090.2126 c -402.8133,0 -805.14308,402.3298 -805.14308,805.1431 V 19027.124 c 0,402.33 402.32978,805.143 805.14308,805.143 h 4676.1164 c 402.8133,0 805.6267,-402.813 805.6267,-805.143 V 7895.3557 c 0,-402.8133 -402.8134,-805.1431 -805.6267,-805.1431 z"
       inkscape:connector-curvature="0"
       style="fill:none;stroke:#000000;stroke-width:13.64729691;stroke-linejoin:round" /><rect
       id="rect915-3"
       height="12742.538"
       width="6286.8862"
       y="7090.2124"
       x="669.15973"
       style="fill:none;stroke-width:13.64729691" /><path
       style="stroke-width:13.64729691"
       id="path917-9"
       d="m 3293.491,18966.678 c -108.3195,0 -216.1555,107.836 -216.1555,216.155 v 186.658 c 0,108.32 107.836,216.639 216.1555,216.639 h 1037.74 c 108.3196,0 216.6391,-108.319 216.6391,-216.639 v -186.658 c 0,-108.319 -108.3195,-216.155 -216.6391,-216.155 z"
       inkscape:connector-curvature="0" /><path
       id="path919-9"
       d="m 3293.491,18966.678 c -108.3195,0 -216.1555,107.836 -216.1555,216.155 v 186.658 c 0,108.32 107.836,216.639 216.1555,216.639 h 1037.74 c 108.3196,0 216.6391,-108.319 216.6391,-216.639 v -186.658 c 0,-108.319 -108.3195,-216.155 -216.6391,-216.155 z"
       inkscape:connector-curvature="0"
       style="fill:none;stroke:#ffffff;stroke-width:24.17847061;stroke-linejoin:round" /><rect
       id="rect921-7"
       height="619.45245"
       width="1470.5347"
       y="18966.678"
       x="3077.3354"
       style="fill:none;stroke-width:13.64729691" /><path
       style="stroke-width:13.64729691"
       id="path923-0"
       d="m 3248.5191,7438.3826 c -32.3992,0 -64.7983,32.3992 -64.7983,64.7983 0,32.3992 32.3991,65.2819 64.7983,65.2819 H 4376.203 c 32.3991,0 65.2818,-32.8827 65.2818,-65.2819 0,-32.3991 -32.8827,-64.7983 -65.2818,-64.7983 z"
       inkscape:connector-curvature="0" /><path
       id="path925-3"
       d="m 3248.5191,7438.3826 c -32.3992,0 -64.7983,32.3992 -64.7983,64.7983 0,32.3992 32.3991,65.2819 64.7983,65.2819 H 4376.203 c 32.3991,0 65.2818,-32.8827 65.2818,-65.2819 0,-32.3991 -32.8827,-64.7983 -65.2818,-64.7983 z"
       inkscape:connector-curvature="0"
       style="fill:none;stroke:#ffffff;stroke-width:24.17847061;stroke-linejoin:round" /><rect
       id="rect927-9"
       height="130.08017"
       width="1257.764"
       y="7438.3828"
       x="3183.7207"
       style="fill:none;stroke-width:13.64729691" /><path
       style="fill:#1800aa;fill-opacity:1;stroke-width:13.64729691"
       id="path929-8"
       d="M 3836.5395,18749.072 H 889.18381 V 8345.0753 H 6783.8952 V 18749.072 Z"
       inkscape:connector-curvature="0" /><path
       id="path931-6"
       d="M 3836.5395,18749.072 H 889.18381 V 8345.0753 H 6783.8952 V 18749.072 Z"
       inkscape:connector-curvature="0"
       style="fill:none;stroke:#ffffff;stroke-width:13.64729691;stroke-linejoin:round" /></g><rect
     width="21000"
     height="29700"
     id="rect905"
     x="-1780.8995"
     y="-7131.1479"
     style="fill:none" /><g
     id="g4841"
     transform="matrix(0.77271038,0.21197937,-0.21197937,0.77271038,6826.2715,-20014.013)"><path
       id="path907"
       d="m 14578.319,22479.843 c -402.813,0 -805.143,402.33 -805.143,805.143 v 11131.771 c 0,402.33 402.33,805.143 805.143,805.143 h 4676.117 c 402.814,0 805.627,-402.813 805.627,-805.143 V 23284.986 c 0,-402.813 -402.813,-805.143 -805.627,-805.143 z"
       inkscape:connector-curvature="0"
       style="fill:#808080;stroke-width:13.64729881" /><path
       id="path909"
       d="m 14578.319,22479.843 c -402.813,0 -805.143,402.33 -805.143,805.143 v 11131.771 c 0,402.33 402.33,805.143 805.143,805.143 h 4676.117 c 402.814,0 805.627,-402.813 805.627,-805.143 V 23284.986 c 0,-402.813 -402.813,-805.143 -805.627,-805.143 z"
       inkscape:connector-curvature="0"
       style="fill:none;stroke:#808080;stroke-width:13.64729881;stroke-linejoin:round" /><path
       style="stroke-width:13.64729881"
       id="path911"
       d="m 14481.605,22383.129 c -402.813,0 -805.143,402.33 -805.143,805.143 v 11131.771 c 0,402.33 402.33,805.143 805.143,805.143 h 4676.118 c 402.813,0 805.626,-402.813 805.626,-805.143 V 23188.272 c 0,-402.813 -402.813,-805.143 -805.626,-805.143 z"
       inkscape:connector-curvature="0" /><path
       id="path913"
       d="m 14481.605,22383.129 c -402.813,0 -805.143,402.33 -805.143,805.143 v 11131.771 c 0,402.33 402.33,805.143 805.143,805.143 h 4676.118 c 402.813,0 805.626,-402.813 805.626,-805.143 V 23188.272 c 0,-402.813 -402.813,-805.143 -805.626,-805.143 z"
       inkscape:connector-curvature="0"
       style="fill:none;stroke:#000000;stroke-width:13.64729881;stroke-linejoin:round" /><rect
       id="rect915"
       height="12742.54"
       width="6286.8872"
       y="22383.129"
       x="13676.462"
       style="fill:none;stroke-width:13.64729881" /><path
       style="stroke-width:13.64729881"
       id="path917"
       d="m 16300.794,34259.597 c -108.32,0 -216.156,107.836 -216.156,216.155 v 186.658 c 0,108.32 107.836,216.639 216.156,216.639 h 1037.74 c 108.32,0 216.639,-108.319 216.639,-216.639 v -186.658 c 0,-108.319 -108.319,-216.155 -216.639,-216.155 z"
       inkscape:connector-curvature="0" /><path
       id="path919"
       d="m 16300.794,34259.597 c -108.32,0 -216.156,107.836 -216.156,216.155 v 186.658 c 0,108.32 107.836,216.639 216.156,216.639 h 1037.74 c 108.32,0 216.639,-108.319 216.639,-216.639 v -186.658 c 0,-108.319 -108.319,-216.155 -216.639,-216.155 z"
       inkscape:connector-curvature="0"
       style="fill:none;stroke:#ffffff;stroke-width:24.17847633;stroke-linejoin:round" /><rect
       id="rect921"
       height="619.45258"
       width="1470.5349"
       y="34259.598"
       x="16084.639"
       style="fill:none;stroke-width:13.64729881" /><path
       style="stroke-width:13.64729881"
       id="path923"
       d="m 16255.822,22731.299 c -32.399,0 -64.798,32.399 -64.798,64.799 0,32.399 32.399,65.281 64.798,65.281 h 1127.684 c 32.399,0 65.282,-32.882 65.282,-65.281 0,-32.4 -32.883,-64.799 -65.282,-64.799 z"
       inkscape:connector-curvature="0" /><path
       id="path925"
       d="m 16255.822,22731.299 c -32.399,0 -64.798,32.399 -64.798,64.799 0,32.399 32.399,65.281 64.798,65.281 h 1127.684 c 32.399,0 65.282,-32.882 65.282,-65.281 0,-32.4 -32.883,-64.799 -65.282,-64.799 z"
       inkscape:connector-curvature="0"
       style="fill:none;stroke:#ffffff;stroke-width:24.17847633;stroke-linejoin:round" /><rect
       id="rect927"
       height="130.0802"
       width="1257.7643"
       y="22731.299"
       x="16191.023"
       style="fill:none;stroke-width:13.64729881" /><path
       style="fill:#cf0018;fill-opacity:1;stroke-width:13.64729881"
       id="path929"
       d="M 16843.842,34041.99 H 13896.486 V 23637.992 h 5894.713 V 34041.99 Z"
       inkscape:connector-curvature="0" /><path
       id="path931"
       d="M 16843.842,34041.99 H 13896.486 V 23637.992 h 5894.713 V 34041.99 Z"
       inkscape:connector-curvature="0"
       style="fill:none;stroke:#ffffff;stroke-width:13.64729881;stroke-linejoin:round" /></g><g
     id="g4826"
     transform="matrix(0.80125937,0,0,0.80125937,-5207.3045,-5633.2318)"><path
       id="path907-9"
       d="m 15203.124,7134.0098 c -402.814,0 -805.143,402.3298 -805.143,805.1431 V 19070.921 c 0,402.33 402.329,805.143 805.143,805.143 h 4676.116 c 402.813,0 805.627,-402.813 805.627,-805.143 V 7939.1529 c 0,-402.8133 -402.814,-805.1431 -805.627,-805.1431 z"
       inkscape:connector-curvature="0"
       style="fill:#808080;stroke-width:13.64729691" /><path
       id="path909-3"
       d="m 15203.124,7134.0098 c -402.814,0 -805.143,402.3298 -805.143,805.1431 V 19070.921 c 0,402.33 402.329,805.143 805.143,805.143 h 4676.116 c 402.813,0 805.627,-402.813 805.627,-805.143 V 7939.1529 c 0,-402.8133 -402.814,-805.1431 -805.627,-805.1431 z"
       inkscape:connector-curvature="0"
       style="fill:none;stroke:#808080;stroke-width:13.64729691;stroke-linejoin:round" /><path
       style="stroke-width:13.64729691"
       id="path911-8"
       d="m 15106.41,7037.2959 c -402.814,0 -805.143,402.3298 -805.143,805.1431 v 11131.768 c 0,402.33 402.329,805.143 805.143,805.143 h 4676.116 c 402.814,0 805.627,-402.813 805.627,-805.143 V 7842.439 c 0,-402.8133 -402.813,-805.1431 -805.627,-805.1431 z"
       inkscape:connector-curvature="0" /><path
       id="path913-0"
       d="m 15106.41,7037.2959 c -402.814,0 -805.143,402.3298 -805.143,805.1431 v 11131.768 c 0,402.33 402.329,805.143 805.143,805.143 h 4676.116 c 402.814,0 805.627,-402.813 805.627,-805.143 V 7842.439 c 0,-402.8133 -402.813,-805.1431 -805.627,-805.1431 z"
       inkscape:connector-curvature="0"
       style="fill:none;stroke:#000000;stroke-width:13.64729691;stroke-linejoin:round" /><rect
       id="rect915-2"
       height="12742.538"
       width="6286.8862"
       y="7037.2959"
       x="14301.267"
       style="fill:none;stroke-width:13.64729691" /><path
       style="stroke-width:13.64729691"
       id="path917-4"
       d="m 16925.598,18913.761 c -108.32,0 -216.156,107.836 -216.156,216.156 v 186.657 c 0,108.32 107.836,216.64 216.156,216.64 h 1037.74 c 108.32,0 216.639,-108.32 216.639,-216.64 v -186.657 c 0,-108.32 -108.319,-216.156 -216.639,-216.156 z"
       inkscape:connector-curvature="0" /><path
       id="path919-8"
       d="m 16925.598,18913.761 c -108.32,0 -216.156,107.836 -216.156,216.156 v 186.657 c 0,108.32 107.836,216.64 216.156,216.64 h 1037.74 c 108.32,0 216.639,-108.32 216.639,-216.64 v -186.657 c 0,-108.32 -108.319,-216.156 -216.639,-216.156 z"
       inkscape:connector-curvature="0"
       style="fill:none;stroke:#ffffff;stroke-width:24.17847061;stroke-linejoin:round" /><rect
       id="rect921-3"
       height="619.45245"
       width="1470.5347"
       y="18913.762"
       x="16709.443"
       style="fill:none;stroke-width:13.64729691" /><path
       style="stroke-width:13.64729691"
       id="path923-9"
       d="m 16880.626,7385.4659 c -32.399,0 -64.798,32.3992 -64.798,64.7983 0,32.3992 32.399,65.2819 64.798,65.2819 h 1127.684 c 32.399,0 65.282,-32.8827 65.282,-65.2819 0,-32.3991 -32.883,-64.7983 -65.282,-64.7983 z"
       inkscape:connector-curvature="0" /><path
       id="path925-0"
       d="m 16880.626,7385.4659 c -32.399,0 -64.798,32.3992 -64.798,64.7983 0,32.3992 32.399,65.2819 64.798,65.2819 h 1127.684 c 32.399,0 65.282,-32.8827 65.282,-65.2819 0,-32.3991 -32.883,-64.7983 -65.282,-64.7983 z"
       inkscape:connector-curvature="0"
       style="fill:none;stroke:#ffffff;stroke-width:24.17847061;stroke-linejoin:round" /><rect
       id="rect927-5"
       height="130.08017"
       width="1257.764"
       y="7385.4658"
       x="16815.828"
       style="fill:none;stroke-width:13.64729691" /><path
       style="fill:#5e1877;fill-opacity:1;stroke-width:13.64729691"
       id="path929-2"
       d="M 17468.646,18696.155 H 14521.291 V 8292.1586 h 5894.711 V 18696.155 Z"
       inkscape:connector-curvature="0" /><path
       id="path931-2"
       d="M 17468.646,18696.155 H 14521.291 V 8292.1586 h 5894.711 V 18696.155 Z"
       inkscape:connector-curvature="0"
       style="fill:none;stroke:#ffffff;stroke-width:13.64729691;stroke-linejoin:round" /></g><circle
     style="fill:none;fill-opacity:1;stroke:none;stroke-width:2.5;stroke-linejoin:round;stroke-miterlimit:4;stroke-dasharray:none;stroke-opacity:1"
     id="path1536"
     cx="7309.1143"
     cy="5108.9927"
     r="2348.177" /><ellipse
     style="fill:none;fill-opacity:1;stroke:#ffffff;stroke-width:158.75;stroke-linejoin:round;stroke-miterlimit:4;stroke-dasharray:none;stroke-opacity:1"
     id="path1544"
     cx="8828.2461"
     cy="5045.5312"
     rx="1648.7189"
     ry="1637.0259" /><ellipse
     style="fill:#ffffff;fill-opacity:1;fill-rule:evenodd;stroke:none;stroke-width:20.85849953;stroke-linejoin:round;stroke-miterlimit:4;stroke-dasharray:none;stroke-opacity:1"
     id="path1544-8"
     cx="8337.1396"
     cy="4669.8174"
     rx="216.62869"
     ry="215.0923" /><ellipse
     style="fill:#ffffff;fill-opacity:1;fill-rule:evenodd;stroke:none;stroke-width:20.85850143;stroke-linejoin:round;stroke-miterlimit:4;stroke-dasharray:none;stroke-opacity:1"
     id="path1544-8-2"
     cx="9260.8896"
     cy="4671.354"
     rx="216.62871"
     ry="215.09232" /><path
     style="fill:none;stroke:#ffffff;stroke-width:143.1214447;stroke-linecap:butt;stroke-linejoin:miter;stroke-opacity:1"
     d="m 7988.9104,5414.383 c 0,0 233.684,400.6012 567.5184,450.6763 333.8344,50.0752 584.2102,16.6917 751.1275,-83.4586 166.9171,-100.1504 267.0673,-333.8345 267.0673,-333.8345"
     id="path1580"
     inkscape:connector-curvature="0" /></svg>